<?xml version="1.0" encoding="UTF-8" standalone="no"?>
<!-- Generator: Adobe Illustrator 19.0.0, SVG Export Plug-In . SVG Version: 6.00 Build 0)  -->

<svg
   version="1.1"
   id="Layer_1"
   x="0px"
   y="0px"
   viewBox="0 0 300 122.4"
   style="enable-background:new 0 0 300 122.4;"
   xml:space="preserve"
   sodipodi:docname="pythonES.svg"
   inkscape:version="1.1 (c4e8f9ed74, 2021-05-24)"
   xmlns:inkscape="http://www.inkscape.org/namespaces/inkscape"
   xmlns:sodipodi="http://sodipodi.sourceforge.net/DTD/sodipodi-0.dtd"
   xmlns="http://www.w3.org/2000/svg"
   xmlns:svg="http://www.w3.org/2000/svg"><defs
   id="defs11" /><sodipodi:namedview
   id="namedview9"
   pagecolor="#ffffff"
   bordercolor="#666666"
   borderopacity="1.0"
   inkscape:pageshadow="2"
   inkscape:pageopacity="0.0"
   inkscape:pagecheckerboard="0"
   showgrid="false"
   inkscape:zoom="4.3966667"
   inkscape:cx="173.88173"
   inkscape:cy="61.182714"
   inkscape:window-width="1920"
   inkscape:window-height="1015"
   inkscape:window-x="0"
   inkscape:window-y="0"
   inkscape:window-maximized="1"
   inkscape:current-layer="Layer_1" />
<style
   type="text/css"
   id="style2">
	.st0{fill:#FFCC12;}
	.st1{fill:#E60000;}
	.st2{fill:#ABABAB;}
</style>
<path
   id="XMLID_47_"
   class="st0"
   d="m 67.5,101.4 c 0,-2.7 2.2,-4.8 4.8,-4.8 2.7,0 4.8,2.2 4.8,4.8 0,2.7 -2.2,4.9 -4.8,4.9 -2.6,0 -4.8,-2.2 -4.8,-4.9 M 83.6,99.8 V 90.1 H 57.8 v -3.2 h 38.7 c 7.5,0 10.3,-5.2 12.9,-13 2.7,-8 2.6,-15.7 0,-26 -1.8,-7.4 -5.4,-13 -12.9,-13 h -9.7 v 11.3 c 0,8.8 -7.5,16.2 -16.1,16.2 H 44.9 c -7.1,0 -12.9,6 -12.9,13 v 24.3 c 0,6.9 6.1,11 12.9,13 8.2,2.4 16,2.8 25.8,0 6.5,-1.8 12.9,-5.5 12.9,-12.9 z" />
<path
   id="XMLID_44_"
   class="st1"
   d="m 38.5,20.3 c 0,-2.7 2.2,-4.9 4.8,-4.9 2.7,0 4.8,2.2 4.8,4.9 0,2.7 -2.2,4.9 -4.8,4.9 -2.7,0 -4.8,-2.2 -4.8,-4.9 M 32,22 v 9.7 h 25.8 v 3.2 H 22.4 c -7.5,0 -14.1,4.5 -16.1,13 -2.4,9.7 -2.5,15.8 0,26 1.8,7.6 6.2,13 13.7,13 h 8.9 V 75.2 c 0,-8.5 7.4,-15.9 16.1,-15.9 h 25.8 c 7.2,0 12.9,-5.9 12.9,-13 V 22 C 83.7,15.1 77.8,9.9 70.8,8.7 61.9,7.2 52.4,7.4 45,8.7 34,10.6 32,14.6 32,22 Z" />
<path
   id="XMLID_33_"
   class="st2"
   d="M295.6,99.2c-1.4,1.4-3.1,2.5-5.2,3.4c-2.1,0.9-4.5,1.4-7.4,1.3c-1.3,0-2.5-0.3-3.6-0.8  c-1.1-0.5-2.1-1.1-2.9-2c-0.8-0.8-1.5-1.8-1.9-2.9c-0.5-1.1-0.7-2.3-0.6-3.6c0-1.4,0.2-2.6,0.8-3.7c0.5-1.1,1.2-2,2.1-2.7  c0.9-0.8,1.9-1.3,3-1.7c1.1-0.4,2.4-0.6,3.8-0.6h7.6v-2.7c0-0.8-0.2-1.5-0.5-2.2c-0.4-0.7-0.8-1.2-1.4-1.7c-0.5-0.5-1.2-0.8-1.9-1.1  c-0.8-0.3-1.5-0.4-2.3-0.4c-1.4,0-2.7,0.2-3.8,0.5c-1.1,0.3-2.3,0.8-3.5,1.5l-1.1-2.7c1.7-0.9,3.2-1.5,4.7-1.9  c1.4-0.4,3.1-0.5,5-0.5c1.1,0,2.3,0.2,3.4,0.6c1.1,0.4,2.1,0.9,3,1.6c0.8,0.7,1.5,1.6,2.1,2.6c0.5,1,0.8,2.2,0.8,3.4V99.2z   M291,98.6V89h-2.7c-1.1,0-2.2,0-3.4,0.1c-1.8,0-3.3,0.5-4.5,1.4c-1.2,1-1.8,2.3-1.8,4.1c0,0.8,0.2,1.6,0.5,2.3  c0.3,0.7,0.8,1.4,1.4,2c0.6,0.6,1.2,1,2,1.4c0.8,0.4,1.6,0.5,2.6,0.5c1.4,0,2.6-0.2,3.7-0.8C289.8,99.5,290.6,99,291,98.6z   M268,103.5h-4.7v-19c0-2.2-0.7-3.8-1.9-4.9c-1.3-1.1-2.9-1.7-5-1.6c-1.2,0-2.4,0.3-3.6,0.7c-1.1,0.5-2,0.9-2.8,1.4v23.4h-4.7v-24  c1.2-0.8,2.3-1.6,3.5-2.3c1.1-0.6,2.4-1.2,3.9-1.6c1.1-0.3,2.5-0.6,4-0.8c1.5-0.2,3.1-0.1,4.8,0.3c1.7,0.4,3.2,1.2,4.5,2.3  c1.3,1.2,1.9,2.7,1.9,4.6V103.5z M252.8,69c-0.9,0-1.7,0.2-2.3,0.5c-0.6,0.3-1.2,0.8-1.9,1.3l-1.7-2.4c1.1-1.1,2.1-1.8,3.2-2.4  c1.1-0.5,2.4-0.8,3.9-0.8c0.7,0,1.4,0.1,1.9,0.3c0.5,0.2,1.1,0.5,1.6,0.7c0.5,0.3,1.1,0.5,1.6,0.7c0.5,0.2,1.2,0.3,1.9,0.3  c0.9,0,1.7-0.2,2.2-0.5c0.6-0.4,1.2-0.8,1.9-1.3l1.7,2.4c-1.1,1.1-2.1,1.8-3.2,2.4c-1.1,0.5-2.4,0.8-3.9,0.8c-0.7,0-1.4-0.1-1.9-0.3  c-0.6-0.2-1.1-0.5-1.6-0.7c-0.5-0.3-1.1-0.5-1.6-0.7C254.1,69.1,253.5,69,252.8,69L252.8,69z M238.7,99.2c-1.4,1.4-3.1,2.5-5.2,3.4  c-2.1,0.9-4.6,1.4-7.4,1.3c-1.3,0-2.5-0.3-3.6-0.8c-1.1-0.5-2.1-1.1-2.9-2c-0.8-0.8-1.5-1.8-2-2.9c-0.5-1.1-0.7-2.3-0.6-3.6  c0-1.4,0.2-2.6,0.8-3.7c0.5-1.1,1.2-2,2.1-2.7c0.9-0.8,1.9-1.3,3-1.7c1.1-0.4,2.4-0.6,3.8-0.6h7.6v-2.7c0-0.8-0.2-1.5-0.5-2.2  c-0.3-0.7-0.8-1.2-1.3-1.7c-0.5-0.5-1.2-0.8-1.9-1.1c-0.8-0.3-1.5-0.4-2.3-0.4c-1.4,0-2.7,0.2-3.8,0.5c-1.1,0.3-2.3,0.8-3.5,1.5  l-1.2-2.7c1.7-0.9,3.2-1.5,4.7-1.9c1.4-0.4,3.1-0.5,5-0.5c1.1,0,2.3,0.2,3.4,0.6c1.1,0.4,2.1,0.9,3,1.6c0.8,0.7,1.5,1.6,2.1,2.6  c0.5,1,0.8,2.2,0.8,3.4V99.2z M234.1,98.6V89h-2.7c-1.1,0-2.2,0-3.4,0.1c-1.8,0-3.3,0.5-4.5,1.4c-1.2,1-1.8,2.3-1.8,4.1  c0,0.8,0.2,1.6,0.5,2.3c0.3,0.7,0.8,1.4,1.4,2c0.6,0.6,1.2,1,2,1.4c0.8,0.4,1.6,0.5,2.5,0.5c1.4,0,2.6-0.2,3.7-0.8  C233,99.5,233.7,99,234.1,98.6z M199.8,74.9c1.9,0,3.6,0.3,5,1.1c1.4,0.8,2.5,1.9,3.4,3.3c0.9,1.4,1.6,3,2,4.8  c0.4,1.8,0.7,3.8,0.7,5.8c0,1.8-0.2,3.5-0.7,5.2c-0.5,1.7-1.1,3.1-2.1,4.5c-0.9,1.3-2.1,2.4-3.5,3.2c-1.4,0.8-3.1,1.2-5,1.3  c-1.6,0-3-0.2-4.4-0.7c-1.4-0.5-2.7-1.1-4-1.9v16.5l-4.6-1.7l0-36.7c0,0,0.2-0.2,0.7-0.7c0.5-0.5,1.2-1,2.3-1.7c1-0.6,2.4-1.2,4-1.7  C195.3,75.2,197.3,74.9,199.8,74.9L199.8,74.9z M198.6,100.8c1.5-0.1,2.8-0.5,3.7-1.2c0.9-0.7,1.6-1.6,2.1-2.7  c0.5-1.1,0.8-2.2,0.9-3.5c0.2-1.2,0.2-2.5,0.2-3.7c0-1.2-0.1-2.4-0.2-3.7c-0.1-1.3-0.4-2.6-0.9-3.8c-0.4-1.2-1.1-2.1-2-2.9  c-0.9-0.8-2-1.2-3.5-1.3c-1,0-1.9,0-2.8,0.2c-0.9,0.1-1.7,0.4-2.4,0.6c-0.7,0.2-1.3,0.5-1.7,0.8c-0.4,0.3-0.8,0.5-0.9,0.7v18.2  c0.4,0.3,0.9,0.5,1.4,0.8c0.6,0.3,1.2,0.6,1.8,0.8c0.7,0.2,1.4,0.5,2.1,0.6C197.2,100.8,197.9,100.8,198.6,100.8z M169.7,104.2  c-1.6,0-3.2-0.3-4.7-0.9c-1.5-0.6-2.9-1.3-4.2-2.3l1.7-2.7c1,0.7,2.1,1.3,3.4,1.8c1.3,0.4,2.6,0.7,3.8,0.7c0.8,0,1.5-0.1,2.3-0.3  c0.8-0.2,1.5-0.5,2.1-0.9c0.6-0.4,1.2-0.9,1.6-1.5c0.4-0.6,0.6-1.4,0.5-2.3c0-0.7-0.2-1.2-0.5-1.7c-0.3-0.5-0.7-0.9-1.1-1.2  c-0.5-0.3-0.9-0.6-1.5-0.8c-0.5-0.2-1.1-0.5-1.6-0.7c-0.4-0.2-0.9-0.4-1.3-0.5c-0.4-0.2-0.9-0.3-1.3-0.5c-0.9-0.3-1.7-0.7-2.6-1  c-0.9-0.3-1.7-0.8-2.4-1.4c-0.8-0.5-1.4-1.2-1.9-2.1c-0.5-0.8-0.8-1.9-0.8-3.2s0.3-2.5,0.8-3.5c0.5-1.1,1.3-1.9,2.2-2.6  c0.9-0.7,2-1.2,3.1-1.6c1.2-0.4,2.4-0.5,3.6-0.5c1.4,0,2.8,0.2,4.2,0.6c1.4,0.4,2.7,1,3.9,1.7l-1.7,2.7c-2.1-1.2-4.1-1.8-6.1-1.9  c-0.7,0-1.4,0.1-2,0.3c-0.7,0.2-1.3,0.4-1.8,0.8c-0.6,0.4-1,0.8-1.4,1.4c-0.3,0.6-0.5,1.2-0.5,2c0,0.8,0.2,1.4,0.7,1.9  c0.5,0.5,1,0.9,1.8,1.2c0.7,0.3,1.5,0.7,2.4,1c0.9,0.4,1.8,0.7,2.7,1.1c0.9,0.4,1.7,0.7,2.6,1.1c0.9,0.4,1.7,0.8,2.4,1.4  c0.8,0.6,1.4,1.3,1.9,2.2c0.5,0.9,0.8,2,0.8,3.2c0,1.5-0.3,2.8-1,3.9c-0.7,1.1-1.5,2-2.6,2.7c-1.1,0.7-2.3,1.3-3.6,1.6  C172.3,104.1,171,104.2,169.7,104.2z M156.6,63.2l-1.6,3.2h-16.1v13.8h13.4l-1.7,3.2h-11.7v16.8h17.3v3.2h-21.9l-0.1-40.2  L156.6,63.2z" />
<path
   id="XMLID_24_"
   class="st2"
   d="M294.9,48.8h-4.6v-19c0-2.2-0.6-3.8-1.9-4.9c-1.3-1.1-2.9-1.7-5-1.6c-1.2,0-2.4,0.3-3.5,0.7  c-1.1,0.4-2.1,0.9-2.8,1.4v23.4h-4.6v-24c1.2-0.8,2.3-1.6,3.5-2.3c1.1-0.6,2.4-1.2,3.9-1.6c1.2-0.3,2.5-0.6,4-0.8  c1.5-0.2,3.1-0.1,4.8,0.3c1.7,0.4,3.2,1.2,4.5,2.3c1.3,1.2,1.9,2.7,1.9,4.6V48.8z M240.4,34.3c0-1.9,0.3-3.7,0.9-5.4  c0.6-1.7,1.4-3.2,2.5-4.5c1.1-1.3,2.4-2.3,4-3.1c1.6-0.8,3.4-1.2,5.4-1.2c2,0,3.8,0.4,5.4,1.2c1.6,0.8,2.9,1.8,4,3.1  c1.1,1.3,1.9,2.8,2.5,4.5c0.6,1.7,0.9,3.5,0.9,5.4c0,1.9-0.3,3.8-0.8,5.6c-0.5,1.8-1.3,3.4-2.4,4.8c-1.1,1.4-2.4,2.5-4,3.4  c-1.6,0.8-3.5,1.3-5.7,1.3c-2.2,0-4-0.4-5.6-1.3c-1.6-0.9-2.9-2-4-3.4c-1.1-1.4-1.8-3-2.4-4.8C240.7,38.1,240.4,36.2,240.4,34.3z   M245.5,34.3c0,1.4,0.1,2.7,0.4,4.2c0.2,1.4,0.6,2.7,1.2,3.9c0.6,1.2,1.4,2.1,2.4,2.9c1,0.8,2.2,1.2,3.7,1.2c1.6,0,2.9-0.4,3.9-1.2  c1-0.8,1.8-1.7,2.3-2.9c0.6-1.2,0.9-2.5,1.1-3.9c0.2-1.4,0.3-2.8,0.3-4.1c0-1.3-0.1-2.5-0.4-3.8c-0.2-1.3-0.7-2.4-1.3-3.4  c-0.6-1-1.4-1.9-2.4-2.6c-1-0.7-2.2-1.1-3.7-1.1c-1.6,0.1-2.9,0.5-3.9,1.1c-1,0.7-1.8,1.5-2.3,2.6c-0.6,1-1,2.2-1.2,3.4  C245.6,31.7,245.5,33,245.5,34.3L245.5,34.3z M234.8,48.8h-4.7v-18c0-0.8-0.1-1.6-0.3-2.5c-0.2-0.8-0.5-1.6-0.9-2.2  c-0.4-0.7-1-1.2-1.7-1.6c-0.7-0.4-1.5-0.6-2.4-0.6c-1.5,0-2.9,0.4-4.2,1.1c-1.3,0.7-2.6,1.5-3.8,2.3v21.6h-4.7v-43l4.7-1.5v19.6  c1.4-1,2.9-1.8,4.5-2.4c1.6-0.6,3.3-0.9,5.3-0.9c1.2,0,2.4,0.2,3.4,0.7c1,0.5,1.9,1.1,2.6,1.9c0.7,0.8,1.3,1.7,1.7,2.8  c0.4,1.1,0.6,2.2,0.6,3.4V48.8z M195.3,23.8h-3.2v-3h3.2V13l4.7-1.7v9.4h5.2v3h-5.2V42c0,1.9,0.5,3.1,1.4,3.7c0.9,0.6,2.2,0.9,3.8,1  v2.4c-3.1,0.3-5.5-0.2-7.3-1.5c-1.7-1.3-2.6-3.1-2.6-5.6V23.8z M168.1,39.6c0,2.2,0.7,3.8,2,4.9c1.4,1.1,3.1,1.6,5.2,1.6  c1.2,0,2.5-0.3,3.8-0.9c1.3-0.5,2.3-1.1,3.1-1.6V20.8h4.7v25.3c0,0.8,0,1.7-0.1,2.7c0,1-0.1,1.9-0.2,2.9c-0.1,1-0.3,1.9-0.5,2.8  c-0.2,0.9-0.5,1.7-0.8,2.3c-0.6,1.1-1.4,2.1-2.5,2.9c-1.1,0.8-2.2,1.5-3.5,2c-1.3,0.5-2.6,0.9-3.9,1.1c-1.3,0.2-2.6,0.4-3.8,0.4  l-0.8-2.9c0.9-0.1,1.9-0.3,2.9-0.4c1-0.2,2.1-0.4,3-0.7c1-0.3,1.9-0.8,2.7-1.3c0.8-0.6,1.5-1.3,1.9-2.2c0.3-0.4,0.5-1,0.6-1.6  c0.1-0.7,0.2-1.3,0.3-2c0.1-0.7,0.1-1.3,0.1-2c0-0.7,0-1.2,0-1.8c0-0.3,0-0.5,0-0.6c0-0.1,0-0.3,0-0.6c-0.7,0.4-1.9,0.8-3.5,1.3  c-1.6,0.6-3.8,0.8-6.5,0.8c-1.1,0-2.1-0.2-3.2-0.5c-1.1-0.4-2-0.9-2.9-1.6c-0.9-0.7-1.6-1.6-2.1-2.6c-0.5-1-0.8-2.2-0.8-3.4V21.7  l4.7-1.6V39.6L168.1,39.6z M138.9,29.9v18.8h-4.7V8.5h8.5c1.5,0,2.9,0,4.1-0.1c1.6,0,3.1,0.3,4.5,0.9c1.4,0.6,2.6,1.3,3.6,2.3  c1,1,1.8,2.1,2.4,3.4c0.6,1.3,0.9,2.7,0.9,4.2c0,1.5-0.3,3-0.8,4.2c-0.5,1.3-1.3,2.4-2.3,3.4c-0.9,0.9-2.1,1.7-3.4,2.2  c-1.3,0.5-2.7,0.8-4.2,0.8H138.9z M153.6,19.2c0-0.9-0.2-1.8-0.6-2.7c-0.4-0.9-0.9-1.7-1.6-2.4c-0.7-0.7-1.4-1.2-2.3-1.6  c-0.9-0.4-1.8-0.6-2.8-0.6h-7.4v14.9h7.3c2.2,0,4-0.7,5.4-2.1C152.9,23.2,153.6,21.4,153.6,19.2z" />
</svg>
