<?xml version="1.0" encoding="UTF-8" standalone="no"?>
<svg
   version="1.1"
   width="512"
   height="512"
   x="0"
   y="0"
   viewBox="0 0 24 24"
   style="enable-background:new 0 0 512 512"
   xml:space="preserve"
   class=""
   id="svg6"
   sodipodi:docname="youtube-dark.svg"
   inkscape:version="1.1 (c4e8f9ed74, 2021-05-24)"
   xmlns:inkscape="http://www.inkscape.org/namespaces/inkscape"
   xmlns:sodipodi="http://sodipodi.sourceforge.net/DTD/sodipodi-0.dtd"
   xmlns="http://www.w3.org/2000/svg"
   xmlns:svg="http://www.w3.org/2000/svg"><defs
     id="defs10" /><sodipodi:namedview
     id="namedview8"
     pagecolor="#ffffff"
     bordercolor="#666666"
     borderopacity="1.0"
     inkscape:pageshadow="2"
     inkscape:pageopacity="0.0"
     inkscape:pagecheckerboard="0"
     showgrid="false"
     inkscape:zoom="1.4199219"
     inkscape:cx="256"
     inkscape:cy="255.64787"
     inkscape:window-width="1920"
     inkscape:window-height="1015"
     inkscape:window-x="0"
     inkscape:window-y="0"
     inkscape:window-maximized="1"
     inkscape:current-layer="svg6" /><g
     id="g4"
     style="fill:#672ba2;fill-opacity:1"><path
       d="m23.469 5.929.03.196c-.29-1.029-1.073-1.823-2.068-2.112l-.021-.005c-1.871-.508-9.4-.508-9.4-.508s-7.51-.01-9.4.508c-1.014.294-1.798 1.088-2.083 2.096l-.005.021c-.699 3.651-.704 8.038.031 11.947l-.031-.198c.29 1.029 1.073 1.823 2.068 2.112l.021.005c1.869.509 9.4.509 9.4.509s7.509 0 9.4-.509c1.015-.294 1.799-1.088 2.084-2.096l.005-.021c.318-1.698.5-3.652.5-5.648 0-.073 0-.147-.001-.221.001-.068.001-.149.001-.23 0-1.997-.182-3.951-.531-5.846zm-13.861 9.722v-7.293l6.266 3.652z"
       fill="#ffffff"
       data-original="#000000"
       style="fill:#672ba2;fill-opacity:1"
       class=""
       id="path2" /></g></svg>
