<?xml version="1.0" encoding="UTF-8"?>
<svg id="Capa_1" data-name="Capa 1" xmlns="http://www.w3.org/2000/svg" viewBox="0 0 89.64 22.17">
  <defs>
    <style>
      .cls-1 {
        fill: #e1251b;
      }

      .cls-1, .cls-2 {
        stroke-width: 0px;
      }

      .cls-2 {
        fill: #003a5d;
      }
    </style>
  </defs>
  <g>
    <path class="cls-2" d="M32.74,14.31h-.16c-.21,0-.39.17-.39.39v3.24c0,.26.21.47.47.47s.47-.21.47-.47v-3.24c0-.21-.17-.39-.39-.39Z"/>
    <path class="cls-2" d="M39.53,15.98h-1.77c-.22,0-.39.17-.39.37s.17.37.39.37h1.28v.5c0,.19-.14.35-.32.38-.51.08-1.15.14-1.73.14-1.26,0-2.11-.12-2.11-1.38,0-1.35,1.01-1.39,2.11-1.39.96,0,1.71.1,2.16.19.24.04.45-.14.45-.38,0-.18-.13-.34-.31-.38-.4-.08-1.19-.21-2.31-.21-1.87,0-3.04.36-3.04,2.16s1.3,2.16,3.04,2.16c.98,0,2.07-.19,2.61-.32.17-.04.29-.2.29-.37v-1.44s0-.01,0-.02c0,0,0-.01,0-.02,0-.21-.17-.37-.37-.37Z"/>
    <path class="cls-2" d="M26.22,11.95c.42,0,.75-.34.75-.75v-.8c.54.02,1.08.04,1.6.04,3.34,0,6.05-.55,6.05-2.7,0-2.03-2.41-2.52-5.5-2.52-.35,0-.72,0-1.09.02-1.43.04-2.57,1.22-2.57,2.64v3.31c0,.42.34.75.75.75ZM28.27,6.49c.4-.01.79-.02,1.16-.02,2.08,0,3.69.24,3.69,1.28,0,1.15-1.96,1.42-4.35,1.42-.16,0-.32,0-.48,0-.73,0-1.32-.61-1.32-1.34s.57-1.31,1.29-1.34Z"/>
    <path class="cls-2" d="M38.42,10.62v.73c0,.41.33.73.73.73s.73-.33.73-.73v-.74l2.43-3.16c.15-.19.17-.45.07-.67-.11-.22-.33-.36-.57-.36-.2,0-.38.09-.5.25l-2.08,2.69h-.11l-2.13-2.69c-.12-.15-.3-.24-.5-.24-.24,0-.46.14-.57.36-.11.22-.08.48.07.67l2.44,3.17Z"/>
    <path class="cls-2" d="M30.86,14.31h-.14c-.14,0-.27.08-.34.21l-1.53,2.9c-.07.13-.2.21-.34.21h-.22c-.14,0-.27-.08-.34-.21l-1.53-2.9c-.07-.13-.2-.21-.34-.21h-.14c-.29,0-.48.31-.34.57l1.42,2.69c.27.52.81.84,1.39.84s1.12-.32,1.39-.84l1.42-2.69c.14-.26-.05-.57-.34-.57Z"/>
    <path class="cls-2" d="M87.36,7.98h-4.02c-.24,0-.96,0-.96-.51,0-.91,1.72-1.03,3.22-1.03,1.04,0,1.88.05,2.57.14.03,0,.06,0,.08,0,.33,0,.6-.28.6-.63,0-.31-.21-.57-.5-.62-.87-.15-1.92-.24-2.74-.24-3.89,0-4.71,1.33-4.71,2.45s.8,1.63,2.38,1.63h4.07c.4,0,.81.06.81.49,0,.71-.99,1.03-3.2,1.03-1.25,0-2.42-.1-3.19-.27-.04,0-.08-.01-.12-.01-.33,0-.59.28-.59.63v.03c0,.29.19.54.46.61.86.21,2.34.37,3.44.37,2.14,0,4.69-.42,4.69-2.45,0-1.08-.77-1.63-2.28-1.63Z"/>
    <path class="cls-2" d="M43.82,14.17c-2.19,0-3.14.66-3.14,2.19s.95,2.19,3.14,2.19,3.14-.66,3.14-2.19-.94-2.19-3.14-2.19ZM43.82,17.78c-1.58,0-2.2-.4-2.2-1.42s.62-1.42,2.2-1.42,2.2.4,2.2,1.42-.62,1.42-2.2,1.42Z"/>
    <path class="cls-2" d="M79.59,5.43c-.59-.13-1.73-.32-3.38-.32-2.64,0-4.88.54-4.88,3.48s2.24,3.48,4.88,3.48c1.61,0,2.77-.19,3.38-.33.28-.06.49-.32.49-.61,0-.39-.35-.68-.74-.61-.67.13-1.77.29-3.1.29-1.81,0-3.09-.16-3.35-1.62h4.61c.33,0,.6-.27.6-.6s-.27-.6-.6-.6h-4.61c.28-1.58,1.74-1.63,3.33-1.63,1.31,0,2.43.16,3.12.3.38.07.74-.22.74-.61h0c0-.3-.2-.55-.48-.61Z"/>
    <path class="cls-2" d="M69.4,6.36c-.41,0-.73.33-.73.73v3.56c0,.1-.14.14-.2.07l-2-2.5-1.08-1.26c-.31-.38-.76-.6-1.25-.6-.88,0-1.6.72-1.6,1.6v.92c0,.41.33.73.73.73s.73-.33.73-.73v-1.15c0-.1.14-.15.2-.07l1.55,1.86,1.52,1.9c.31.38.76.6,1.25.6.88,0,1.6-.72,1.6-1.6v-3.32c0-.41-.33-.73-.73-.73Z"/>
    <path class="cls-2" d="M51.68,5.43c-.59-.13-1.73-.32-3.38-.32-2.64,0-4.88.54-4.88,3.48s2.24,3.48,4.88,3.48c1.61,0,2.77-.19,3.38-.33.28-.06.49-.32.49-.61,0-.39-.35-.68-.74-.61-.67.13-1.77.29-3.1.29-2.03,0-3.4-.2-3.4-2.22,0-2.17,1.62-2.23,3.38-2.23,1.31,0,2.43.16,3.12.3.38.07.74-.22.74-.61h0c0-.3-.2-.55-.48-.61Z"/>
    <path class="cls-2" d="M57.41,6.17c-2.96,0-4.28.93-4.28,3.03s1.32,3.03,4.28,3.03,4.28-.93,4.28-3.03-1.32-3.03-4.28-3.03ZM57.41,10.96c-2.05,0-2.81-.48-2.81-1.77s.76-1.77,2.81-1.77,2.81.48,2.81,1.77-.76,1.77-2.81,1.77Z"/>
  </g>
  <g>
    <path class="cls-1" d="M9.35,7.99c1.22,0,2.21-.99,2.21-2.21,0-.71-.35-1.39-.93-1.8-.22-.15-.52-.1-.67.11-.15.22-.1.52.11.67.33.23.53.62.53,1.02,0,.69-.56,1.25-1.25,1.25C4.2,7.03,0,11.23,0,16.39c0,.26.21.48.48.48s.48-.21.48-.48c0-4.63,3.77-8.39,8.39-8.39Z"/>
    <path class="cls-1" d="M18.23,5.3c-.26,0-.48.21-.48.48,0,4.63-3.77,8.39-8.39,8.39-1.22,0-2.21.99-2.21,2.21,0,.71.35,1.39.93,1.8.08.06.18.09.28.09.15,0,.3-.07.39-.2.15-.22.1-.52-.11-.67-.33-.23-.53-.62-.53-1.02,0-.69.56-1.25,1.25-1.25,5.16,0,9.35-4.2,9.35-9.35,0-.26-.21-.48-.48-.48Z"/>
    <path class="cls-1" d="M9.35,21.21c-2.66,0-4.82-2.16-4.82-4.82s2.16-4.82,4.82-4.82c3.19,0,5.78-2.59,5.78-5.78S12.54,0,9.35,0c-.26,0-.48.21-.48.48s.21.48.48.48c2.66,0,4.82,2.16,4.82,4.82s-2.16,4.82-4.82,4.82c-3.19,0-5.78,2.59-5.78,5.78s2.59,5.78,5.78,5.78c.26,0,.48-.21.48-.48s-.21-.48-.48-.48Z"/>
    <path class="cls-1" d="M8.66,9.84l.83-.05c1.66-.03,3.19-1.23,3.66-2.81.85-2.65-1.4-5.43-4.17-5.11-1.92.17-3.51,1.99-3.31,3.91.01.19.3.19.31,0,.18-2.19,2.51-3.74,4.56-2.85,1.98.83,2.49,3.55.92,5.01-.5.47-1.14.77-1.82.84-.11,0-.95.05-1.08.05-3.8.36-6.83,3.72-6.77,7.55.02.63.94.62.96,0,.02-1.08.29-2.15.8-3.1,1.02-1.9,2.98-3.23,5.12-3.46Z"/>
    <path class="cls-1" d="M15.86,18.02h-1.04v-.17c0-.07.03-.14.08-.2.05-.06.12-.12.21-.19.08-.06.17-.12.27-.19.1-.07.19-.14.27-.22.08-.08.15-.17.21-.26.05-.1.08-.2.08-.32,0-.13-.03-.24-.09-.34-.06-.1-.15-.18-.25-.23-.1-.06-.22-.08-.35-.08-.12,0-.23.02-.33.07-.1.05-.18.12-.24.2-.06.09-.09.19-.09.3,0,.06.01.11.03.13.02.02.05.04.09.04.05,0,.08-.01.11-.03.03-.02.04-.05.04-.08,0-.12.04-.22.11-.28s.16-.09.27-.09c.1,0,.18.02.24.06.06.04.11.09.14.15.03.06.04.13.04.19,0,.09-.03.18-.08.26s-.12.15-.21.22c-.09.07-.18.14-.27.21-.1.07-.19.14-.27.21-.09.07-.16.15-.21.22-.05.08-.08.16-.08.26v.33s.01.06.04.07c.03.02.06.03.08.03h1.2s.05-.01.07-.04c.02-.03.03-.06.03-.09,0-.04,0-.07-.03-.09-.02-.02-.04-.04-.07-.04Z"/>
    <path class="cls-1" d="M17.38,17.44h-.18v-.57s-.01-.06-.04-.07c-.03-.02-.06-.02-.1-.02s-.07,0-.1.02c-.03.02-.04.04-.04.07v.57h-.59l.74-1.47s.01-.03.01-.05c0-.02,0-.04-.03-.06-.02-.02-.04-.03-.06-.04-.02,0-.04-.01-.06-.01-.02,0-.05,0-.07.02-.02.01-.04.03-.06.06l-.83,1.65s-.01.02-.01.03c0,.01,0,.02,0,.03,0,.03,0,.06.03.08.02.02.04.03.08.03h.84v.47s.01.06.04.08c.03.02.06.03.1.03s.07,0,.1-.03c.03-.02.04-.04.04-.08v-.47h.18s.05-.01.07-.04c.02-.03.03-.06.03-.09s0-.06-.03-.09c-.02-.03-.04-.04-.08-.04Z"/>
    <path class="cls-1" d="M12.71,16.38c-.06.55-.24,1.08-.52,1.53-1.51,2.45-5.29,1.94-5.85-.96-.36-1.77,1.1-3.57,2.9-3.58,1.53,0,3.08-.44,4.35-1.3,2.06-1.38,3.35-3.81,3.32-6.29-.02-.63-.94-.62-.96,0,0,3.3-2.63,6.22-5.92,6.55,0,0-.83.05-.83.05-.99.02-1.95.45-2.65,1.15-2.02,1.96-1.34,5.44,1.26,6.5,2.5,1.07,5.45-.88,5.21-3.63-.01-.18-.3-.19-.31,0Z"/>
  </g>
</svg>