<?xml version="1.0" standalone="no"?>
<!DOCTYPE svg PUBLIC "-//W3C//DTD SVG 20010904//EN"
 "http://www.w3.org/TR/2001/REC-SVG-20010904/DTD/svg10.dtd">
<svg version="1.0" xmlns="http://www.w3.org/2000/svg"
 width="480.000000pt" height="480.000000pt" viewBox="0 0 480.000000 480.000000"
 preserveAspectRatio="xMidYMid meet">
<metadata>
Created by potrace 1.10, written by Peter Selinger 2001-2011
</metadata>
<g transform="translate(0.000000,480.000000) scale(0.100000,-0.100000)"
fill="#ff0000" stroke="none">
<path d="M1965 4714 c-27 -7 -75 -14 -105 -14 -30 0 -80 -7 -110 -15 -30 -8
-71 -15 -90 -15 -19 0 -44 -7 -54 -15 -11 -8 -29 -15 -41 -15 -12 0 -30 -7
-41 -15 -10 -8 -27 -15 -36 -15 -23 0 -98 -40 -98 -51 0 -5 -6 -9 -14 -9 -18
0 -96 -78 -96 -96 0 -7 -6 -17 -13 -21 -21 -13 -40 -65 -48 -128 -4 -33 -12
-91 -18 -130 -6 -38 -10 -166 -11 -283 l0 -213 565 1 c311 1 569 -1 574 -4 4
-3 7 -29 5 -58 -2 -29 -3 -60 -4 -68 0 -13 -102 -15 -858 -15 -797 0 -859 -1
-889 -17 -18 -10 -45 -18 -62 -18 -16 0 -32 -4 -36 -9 -3 -6 -29 -22 -58 -36
-88 -45 -126 -71 -171 -124 -12 -13 -29 -31 -38 -40 -10 -8 -18 -19 -18 -24 0
-5 -11 -23 -24 -40 -14 -18 -29 -43 -35 -57 -6 -14 -15 -32 -20 -40 -15 -26
-33 -84 -38 -120 -3 -19 -10 -41 -16 -49 -17 -21 -29 -114 -34 -270 -5 -175
10 -186 46 -33 15 66 28 102 37 102 7 0 16 16 19 38 57 342 228 557 490 615
75 17 79 17 1080 22 286 2 534 4 551 4 30 1 82 32 135 83 30 28 44 74 35 116
-10 44 -68 99 -117 112 -24 6 -52 15 -63 21 -11 7 -96 10 -232 8 -118 -1 -217
1 -221 4 -10 11 -181 8 -188 -3 -4 -6 -37 -8 -88 -4 -102 8 -107 7 -134 -1
-18 -6 -26 0 -48 33 -26 40 -26 41 -22 189 6 185 13 256 28 313 13 47 44 99
68 114 7 4 22 17 32 27 22 22 73 49 92 49 8 0 17 7 21 15 3 9 18 15 36 15 17
0 76 11 133 24 56 14 125 28 152 31 28 4 56 14 63 23 11 14 51 16 350 16 239
0 350 -4 382 -13 25 -7 77 -17 115 -22 211 -27 316 -71 433 -184 84 -80 108
-127 131 -252 18 -95 4 -1198 -15 -1235 -8 -15 -14 -34 -14 -41 0 -17 -36 -83
-65 -118 -35 -42 -122 -108 -167 -128 -91 -39 -133 -41 -708 -41 -378 0 -561
-3 -565 -10 -4 -6 -28 -10 -53 -10 -26 1 -85 -1 -132 -4 -76 -6 -95 -12 -185
-58 -55 -28 -120 -64 -145 -81 -72 -49 -188 -176 -231 -252 -22 -38 -44 -77
-48 -85 -5 -8 -14 -40 -21 -70 -7 -30 -18 -62 -25 -70 -10 -11 -14 -77 -17
-260 -3 -258 -7 -282 -50 -296 -12 -3 -91 -7 -175 -6 -133 0 -161 2 -220 23
-77 26 -160 90 -201 153 -14 23 -34 50 -43 61 -10 11 -32 56 -49 100 -17 44
-36 84 -41 90 -5 5 -9 18 -9 28 0 11 -7 51 -16 91 -9 39 -18 81 -20 93 -2 13
-11 23 -18 23 -10 0 -19 20 -26 58 -24 112 -41 165 -51 155 -14 -14 -13 -256
0 -282 6 -11 11 -39 11 -63 0 -24 7 -53 15 -64 8 -10 14 -30 15 -44 0 -26 26
-114 41 -140 5 -8 11 -21 14 -27 13 -33 17 -40 35 -68 11 -16 23 -37 27 -45
11 -25 66 -92 103 -127 31 -29 102 -69 195 -109 22 -10 105 -14 303 -16 l272
-3 0 332 c0 363 -5 329 64 473 17 35 42 77 56 93 14 16 27 34 30 41 3 6 34 38
70 70 81 71 87 76 99 76 5 0 11 7 15 15 3 8 14 15 24 15 10 0 27 7 38 15 10 8
26 15 34 15 9 0 21 5 28 12 7 7 49 20 95 30 73 15 155 17 742 18 564 1 663 3
679 15 11 8 29 15 40 15 12 0 30 7 40 15 11 8 26 15 34 15 24 0 191 141 192
162 0 4 11 19 25 34 14 15 28 39 31 53 3 14 12 38 20 53 8 14 14 37 14 50 1
12 7 34 15 48 12 21 14 125 14 635 0 510 -2 614 -14 635 -8 14 -15 36 -15 50
0 14 -7 34 -15 44 -8 11 -15 26 -15 33 0 30 -156 213 -181 213 -4 0 -23 14
-41 30 -18 17 -40 30 -49 30 -9 0 -41 14 -72 30 -31 17 -65 30 -76 30 -11 0
-46 7 -78 15 -31 8 -85 15 -119 15 -33 0 -83 7 -110 15 -68 21 -644 20 -719
-1z"/>
<path d="M1583 4483 c-12 -2 -24 -14 -27 -29 -4 -16 -21 -31 -49 -44 -39 -19
-87 -74 -87 -102 0 -7 -7 -22 -15 -32 -18 -24 -20 -132 -4 -189 14 -53 103
-154 165 -189 51 -28 52 -29 153 -19 l101 9 61 54 c74 64 110 129 116 213 6
73 -23 165 -65 208 -108 112 -118 117 -209 115 -37 -1 -79 1 -93 4 -14 3 -35
4 -47 1z m195 -114 c60 -33 101 -73 102 -100 0 -9 7 -22 15 -29 10 -8 15 -30
15 -65 0 -35 -5 -57 -15 -65 -8 -7 -15 -20 -15 -29 -1 -20 -36 -61 -75 -86
-40 -26 -193 -28 -218 -3 -9 9 -20 18 -25 20 -5 1 -23 23 -40 47 -29 40 -32
51 -32 118 0 53 5 81 18 101 24 38 84 92 103 92 8 0 24 7 35 15 30 23 70 18
132 -16z"/>
<path d="M3606 3530 c-2 -3 0 -122 4 -265 4 -143 4 -264 1 -270 -3 -5 -11 -37
-18 -70 -6 -33 -16 -79 -22 -102 -12 -48 -91 -183 -133 -228 -15 -16 -28 -33
-28 -36 0 -9 -122 -104 -160 -125 -19 -10 -42 -24 -50 -30 -8 -7 -31 -15 -50
-19 -19 -4 -44 -14 -55 -21 -11 -8 -30 -14 -43 -14 -13 0 -32 -5 -42 -10 -12
-7 -262 -11 -692 -13 -747 -2 -715 0 -833 -71 -50 -30 -175 -144 -175 -158 0
-5 -13 -27 -30 -50 -16 -22 -30 -48 -30 -58 0 -9 -4 -20 -9 -25 -6 -6 -17 -54
-25 -107 -13 -80 -16 -196 -16 -628 0 -616 5 -674 70 -766 8 -12 22 -32 30
-44 19 -29 73 -79 130 -122 56 -42 203 -118 250 -129 74 -17 128 -35 141 -45
8 -7 41 -14 74 -18 33 -3 101 -13 150 -21 250 -43 299 -43 570 0 55 9 128 20
163 24 35 5 69 14 75 20 6 6 18 11 26 11 9 0 29 7 45 15 15 8 40 15 55 15 14
0 50 14 80 30 30 17 59 30 65 30 5 0 42 21 80 46 82 54 194 167 202 204 3 14
9 32 15 40 12 19 13 23 33 89 13 42 16 101 16 288 l0 234 -572 -2 -573 -2 0
77 0 77 918 -1 918 -1 72 35 c73 35 137 88 193 161 31 41 64 104 64 124 0 6 4
11 9 11 9 0 51 103 51 127 0 8 7 21 15 29 8 9 15 24 15 34 0 10 7 31 15 46 8
16 15 43 15 59 1 17 7 41 15 55 8 14 14 37 15 51 0 15 7 43 15 64 22 52 23
520 1 598 -19 70 -35 148 -46 228 -5 37 -13 75 -18 85 -13 27 -32 83 -43 129
-6 21 -14 44 -18 50 -5 5 -11 22 -15 38 -3 15 -11 27 -16 27 -6 0 -10 6 -10
14 0 16 -81 131 -114 161 -46 43 -115 85 -172 104 -53 19 -87 21 -327 24 -148
1 -270 0 -271 -3z m591 -107 c23 -12 52 -27 65 -34 13 -7 30 -15 38 -19 42
-20 134 -177 177 -305 35 -101 40 -122 66 -275 9 -47 21 -103 29 -125 9 -29
13 -108 13 -285 0 -244 0 -245 -32 -370 -38 -145 -93 -303 -122 -351 -12 -19
-21 -41 -21 -51 0 -9 -16 -35 -35 -58 -19 -23 -35 -48 -35 -56 0 -7 -18 -25
-40 -39 -22 -14 -40 -29 -40 -34 0 -14 -90 -43 -160 -50 -36 -4 -438 -6 -895
-4 l-830 4 -52 -55 c-29 -30 -57 -66 -62 -79 -16 -40 3 -90 52 -140 l45 -47
479 -2 c568 -2 522 0 533 -18 11 -17 14 -360 4 -408 -4 -18 -14 -32 -25 -35
-15 -4 -19 -14 -19 -46 0 -28 -5 -44 -15 -47 -8 -4 -15 -14 -16 -23 -1 -25
-115 -116 -202 -162 -42 -22 -109 -47 -149 -55 -39 -8 -76 -21 -82 -29 -16
-19 -71 -33 -226 -55 -74 -11 -159 -24 -188 -29 -63 -12 -236 -7 -307 9 -27 6
-84 15 -125 20 -97 11 -178 29 -211 46 -15 7 -47 18 -72 24 -57 12 -186 73
-251 117 -26 18 -51 33 -55 33 -13 0 -88 106 -105 149 -43 110 -46 156 -46
724 1 451 3 546 15 567 8 14 14 37 15 51 0 44 36 133 71 180 68 90 179 156
300 179 30 6 295 10 641 10 569 0 764 8 795 33 7 5 47 27 90 49 180 92 277
176 359 313 99 164 114 229 123 515 4 129 3 223 -2 234 -8 15 -4 24 14 39 22
18 38 19 239 15 197 -3 219 -6 257 -25z"/>
<path d="M2901 919 c-50 -10 -71 -22 -126 -75 -114 -110 -129 -240 -44 -362
81 -115 182 -164 282 -138 62 17 137 48 137 57 0 4 14 20 30 36 17 15 30 34
30 42 0 8 10 25 22 39 20 21 23 34 23 112 0 86 -1 89 -39 144 -41 59 -106 122
-141 136 -35 13 -129 18 -174 9z m113 -68 c3 -5 18 -12 32 -15 31 -8 111 -87
125 -123 12 -32 12 -125 -1 -157 -17 -47 -92 -111 -150 -130 -47 -15 -59 -16
-95 -5 -221 72 -236 330 -25 422 39 17 106 22 114 8z"/>
</g>
</svg>
